<svg xmlns="http://www.w3.org/2000/svg" xmlns:xlink="http://www.w3.org/1999/xlink" width="86" height="81" viewBox="0 0 86 81">
  <defs>
    <clipPath id="clip-iPhone_6_7_8_Plus_1">
      <rect width="86" height="81"/>
    </clipPath>
  </defs>
  <g id="iPhone_6_7_8_Plus_1" data-name="iPhone 6/7/8 Plus – 1" clip-path="url(#clip-iPhone_6_7_8_Plus_1)">
    <path id="shopping-cart" d="M29.495,30.427C29.171,28.843,19.565,0,17.948,0H3.4A3.4,3.4,0,0,0,0,3.4v2.27a3.4,3.4,0,0,0,3.4,3.4h9.913l9.964,48.715a7.944,7.944,0,1,0,9.51,1.215H62.53a7.941,7.941,0,1,0,9.021-1.476l.783-3.443c.277-1.221.595-14.956,0-16.544C72.311,39.9,29.495,30.427,29.495,30.427Z" transform="translate(4.838 4.013)" fill="#ff0057"/>
    <path id="Trazado_1" data-name="Trazado 1" d="M26,0A26,26,0,1,1,0,26,26,26,0,0,1,26,0Z" transform="translate(29 7)" fill="#fff"/>
    <path id="Trazado_2" data-name="Trazado 2" d="M21.9-1.67a19.3,19.3,0,0,1-7.628-1.474A18.716,18.716,0,0,1,8.249-7.188a18.664,18.664,0,0,1-3.979-5.93,18.257,18.257,0,0,1-1.424-7.2,17.837,17.837,0,0,1,1.424-7.1A18.262,18.262,0,0,1,8.213-33.24a18.754,18.754,0,0,1,6.023-3.976,19.38,19.38,0,0,1,7.592-1.474,19.3,19.3,0,0,1,7.628,1.474,18.15,18.15,0,0,1,5.95,4.011,18.568,18.568,0,0,1,3.869,5.827,17.819,17.819,0,0,1,1.387,6.993v1.1a2.6,2.6,0,0,1-.073.754H8.03a14.3,14.3,0,0,0,1.423,5.313,14.621,14.621,0,0,0,3.1,4.216A13.973,13.973,0,0,0,16.9-6.229a13.727,13.727,0,0,0,5.219.994,14.3,14.3,0,0,0,3.65-.48,15.3,15.3,0,0,0,3.358-1.3A12.421,12.421,0,0,0,31.9-9.039a8.676,8.676,0,0,0,1.9-2.639l4.307,1.1a11.827,11.827,0,0,1-2.482,3.6A17.178,17.178,0,0,1,31.9-4.172a18.888,18.888,0,0,1-4.672,1.851A21.493,21.493,0,0,1,21.9-1.67ZM35.916-22.1a13.729,13.729,0,0,0-1.424-5.245,14.318,14.318,0,0,0-3.066-4.079A13.661,13.661,0,0,0,27.12-34.1a14.158,14.158,0,0,0-5.219-.96,14.445,14.445,0,0,0-5.256.96A13.563,13.563,0,0,0,12.3-31.423,13.144,13.144,0,0,0,9.308-27.31,14.8,14.8,0,0,0,7.957-22.1Z" transform="translate(33 53.4)" fill="#ff0057"/>
  </g>
</svg>
