<svg xmlns="http://www.w3.org/2000/svg" xmlns:xlink="http://www.w3.org/1999/xlink" width="363" height="81" viewBox="0 0 363 81">
  <defs>
    <clipPath id="clip-iPhone_6_7_8_Plus_1">
      <rect width="363" height="81"/>
    </clipPath>
  </defs>
  <g id="iPhone_6_7_8_Plus_1" data-name="iPhone 6/7/8 Plus – 1" clip-path="url(#clip-iPhone_6_7_8_Plus_1)">
    <path id="Trazado_5" data-name="Trazado 5" d="M46.833,0V-36.783L31.021-8.576H27.6L11.725-36.783V0H5.7V-47.57H12.06L29.279-16.683,46.565-47.57h6.3V0ZM78.189.67A17.814,17.814,0,0,1,70.953-.771,17.112,17.112,0,0,1,65.325-4.69a17.868,17.868,0,0,1-3.652-5.8,18.929,18.929,0,0,1-1.307-7,18.67,18.67,0,0,1,1.307-6.968,17.67,17.67,0,0,1,3.685-5.762,17.49,17.49,0,0,1,5.661-3.919,17.814,17.814,0,0,1,7.236-1.44,17.235,17.235,0,0,1,7.2,1.474,17.115,17.115,0,0,1,5.528,3.92A17.315,17.315,0,0,1,94.5-24.489a18.738,18.738,0,0,1,1.239,6.733q0,.737-.034,1.34a7.065,7.065,0,0,1-.1.938H66.6A13.563,13.563,0,0,0,67.8-10.72a12.239,12.239,0,0,0,2.613,3.685,12.083,12.083,0,0,0,3.652,2.412,10.907,10.907,0,0,0,4.321.871,11.524,11.524,0,0,0,3.149-.435A13.668,13.668,0,0,0,84.42-5.36,10,10,0,0,0,86.8-7.169a7.383,7.383,0,0,0,1.574-2.412l5.092,1.407a12.858,12.858,0,0,1-2.379,3.551A15.773,15.773,0,0,1,87.6-1.843,18,18,0,0,1,83.214,0,18.688,18.688,0,0,1,78.189.67Zm11.993-20.5a12.6,12.6,0,0,0-1.24-4.59,12.27,12.27,0,0,0-2.613-3.584,11.677,11.677,0,0,0-3.652-2.312,11.712,11.712,0,0,0-4.422-.838,11.712,11.712,0,0,0-4.422.838,11.377,11.377,0,0,0-3.651,2.345,11.868,11.868,0,0,0-2.546,3.584,13.175,13.175,0,0,0-1.173,4.556ZM120.8-29.815A15.155,15.155,0,0,0,113-27.537a11.619,11.619,0,0,0-4.79,5.963V0h-5.9V-34.974H107.8v8.107a16.5,16.5,0,0,1,4.757-5.863,11.823,11.823,0,0,1,6.3-2.512H120a4.162,4.162,0,0,1,.8.067Zm2.68,12.261a19.1,19.1,0,0,1,1.273-6.968,17.125,17.125,0,0,1,3.618-5.729,17.46,17.46,0,0,1,5.595-3.886,17.749,17.749,0,0,1,7.27-1.44,16.957,16.957,0,0,1,9.011,2.311,15.007,15.007,0,0,1,5.729,6.2l-5.762,1.809a9.586,9.586,0,0,0-3.752-3.852,10.64,10.64,0,0,0-5.36-1.374,10.911,10.911,0,0,0-4.556.971,10.829,10.829,0,0,0-3.685,2.714,13.355,13.355,0,0,0-2.446,4.087,14.223,14.223,0,0,0-.9,5.159,14.108,14.108,0,0,0,.938,5.159,13.756,13.756,0,0,0,2.512,4.187,11.478,11.478,0,0,0,3.685,2.781,10.385,10.385,0,0,0,4.523,1.005,10.933,10.933,0,0,0,3.048-.436,11.7,11.7,0,0,0,2.747-1.172,10.378,10.378,0,0,0,2.177-1.708,5.825,5.825,0,0,0,1.34-2.11l5.762,1.742A12.4,12.4,0,0,1,154-4.556a14.032,14.032,0,0,1-3.383,2.747A18.331,18.331,0,0,1,146.294,0,18.324,18.324,0,0,1,141.3.67,17.465,17.465,0,0,1,134.067-.8a17.537,17.537,0,0,1-5.628-3.953,17.868,17.868,0,0,1-3.651-5.8A18.929,18.929,0,0,1,123.481-17.554ZM171.922.67A12.594,12.594,0,0,1,167.3-.168a11.5,11.5,0,0,1-3.719-2.312A10.884,10.884,0,0,1,161.1-5.93a10.26,10.26,0,0,1-.9-4.322,9.054,9.054,0,0,1,1.072-4.389,9.975,9.975,0,0,1,3.048-3.384,15.719,15.719,0,0,1,4.69-2.211,20.8,20.8,0,0,1,5.93-.8,29.159,29.159,0,0,1,5.159.469,23.8,23.8,0,0,1,4.623,1.273V-22.11a9.172,9.172,0,0,0-2.412-6.734,9.169,9.169,0,0,0-6.834-2.445q-5.293,0-11.122,4.087l-1.943-3.819a24.186,24.186,0,0,1,13.6-4.556q6.9,0,10.753,3.685t3.852,10.385V-7.236q0,2.077,1.876,2.144V0q-.938.134-1.541.2a11.538,11.538,0,0,1-1.273.067A3.758,3.758,0,0,1,186.9-.771a4.276,4.276,0,0,1-1.24-2.513l-.134-2.479a15.131,15.131,0,0,1-5.929,4.791A18.2,18.2,0,0,1,171.922.67Zm1.541-4.422a14.62,14.62,0,0,0,5.863-1.172,9.66,9.66,0,0,0,4.12-3.115,3.721,3.721,0,0,0,1.273-2.613v-5.159a24.279,24.279,0,0,0-8.911-1.675,12.637,12.637,0,0,0-7.2,1.876,5.678,5.678,0,0,0-2.781,4.891,6.649,6.649,0,0,0,.57,2.747A6.556,6.556,0,0,0,168-5.762a7.691,7.691,0,0,0,2.445,1.474A8.4,8.4,0,0,0,173.463-3.752Zm41,4.422a15.326,15.326,0,0,1-6.7-1.474,16.616,16.616,0,0,1-5.293-3.953,18.245,18.245,0,0,1-3.451-5.762,19.374,19.374,0,0,1-1.24-6.9,20.85,20.85,0,0,1,1.173-7,18.2,18.2,0,0,1,3.283-5.8,15.626,15.626,0,0,1,5.025-3.919,14.24,14.24,0,0,1,6.4-1.44,13.277,13.277,0,0,1,7.538,2.211,17.419,17.419,0,0,1,5.259,5.36v-20.9h5.9V-7.236q0,2.077,1.876,2.144V0q-.938.134-1.508.2a9.462,9.462,0,0,1-1.105.067A4.421,4.421,0,0,1,228.57-.9a3.554,3.554,0,0,1-1.307-2.714V-6.566a14.707,14.707,0,0,1-5.527,5.327A14.8,14.8,0,0,1,214.467.67Zm1.407-5.092a9.938,9.938,0,0,0,3.316-.6A12.984,12.984,0,0,0,222.406-6.7a12.14,12.14,0,0,0,2.613-2.513,7.491,7.491,0,0,0,1.44-3.049v-10.05a11.11,11.11,0,0,0-1.809-3.183,14.29,14.29,0,0,0-2.714-2.613,13.227,13.227,0,0,0-3.216-1.742,9.642,9.642,0,0,0-3.383-.636,10.024,10.024,0,0,0-4.724,1.105A11.556,11.556,0,0,0,207-26.432a13.349,13.349,0,0,0-2.311,4.221,15.072,15.072,0,0,0-.8,4.858,13.483,13.483,0,0,0,.938,4.991,13.076,13.076,0,0,0,2.546,4.121,12.313,12.313,0,0,0,3.786,2.78A10.83,10.83,0,0,0,215.874-4.422ZM257.481.67a17.235,17.235,0,0,1-7.2-1.474,17.249,17.249,0,0,1-5.561-3.953,17.785,17.785,0,0,1-3.585-5.762,18.921,18.921,0,0,1-1.273-6.9,18.67,18.67,0,0,1,1.307-6.968,18.259,18.259,0,0,1,3.618-5.762,17.249,17.249,0,0,1,5.561-3.953,17.071,17.071,0,0,1,7.135-1.474A17.3,17.3,0,0,1,264.65-34.1a17.153,17.153,0,0,1,5.595,3.953,18.259,18.259,0,0,1,3.618,5.762,18.67,18.67,0,0,1,1.307,6.968,18.921,18.921,0,0,1-1.273,6.9,17.5,17.5,0,0,1-3.618,5.762A17.639,17.639,0,0,1,264.684-.8,17.235,17.235,0,0,1,257.481.67ZM245.89-17.353a14.031,14.031,0,0,0,.9,5.092,13.008,13.008,0,0,0,2.479,4.087,11.705,11.705,0,0,0,3.685,2.747,10.385,10.385,0,0,0,4.522,1.005A10.385,10.385,0,0,0,262-5.427a11.857,11.857,0,0,0,3.718-2.781,13,13,0,0,0,2.513-4.154,14.3,14.3,0,0,0,.9-5.126,14.11,14.11,0,0,0-.9-5.059,13,13,0,0,0-2.513-4.154A11.856,11.856,0,0,0,262-29.48a10.385,10.385,0,0,0-4.523-1,10.106,10.106,0,0,0-4.522,1.038,11.912,11.912,0,0,0-3.685,2.814,13.337,13.337,0,0,0-2.479,4.154A14.3,14.3,0,0,0,245.89-17.353Z" transform="translate(81 63)" fill="#a29d9d"/>
    <path id="shopping-cart" d="M29.495,30.427C29.171,28.843,19.565,0,17.948,0H3.4A3.4,3.4,0,0,0,0,3.4v2.27a3.4,3.4,0,0,0,3.4,3.4h9.913l9.964,48.715a7.944,7.944,0,1,0,9.51,1.215H62.53a7.941,7.941,0,1,0,9.021-1.476l.783-3.443c.277-1.221.595-14.956,0-16.544C72.311,39.9,29.495,30.427,29.495,30.427Z" transform="translate(4.838 4.013)" fill="#ff0057"/>
    <path id="Trazado_1" data-name="Trazado 1" d="M26,0A26,26,0,1,1,0,26,26,26,0,0,1,26,0Z" transform="translate(29 7)" fill="#fff"/>
    <path id="Trazado_2" data-name="Trazado 2" d="M21.9-1.67a19.3,19.3,0,0,1-7.628-1.474A18.716,18.716,0,0,1,8.249-7.188a18.664,18.664,0,0,1-3.979-5.93,18.257,18.257,0,0,1-1.424-7.2,17.837,17.837,0,0,1,1.424-7.1A18.262,18.262,0,0,1,8.213-33.24a18.754,18.754,0,0,1,6.023-3.976,19.38,19.38,0,0,1,7.592-1.474,19.3,19.3,0,0,1,7.628,1.474,18.15,18.15,0,0,1,5.95,4.011,18.568,18.568,0,0,1,3.869,5.827,17.819,17.819,0,0,1,1.387,6.993v1.1a2.6,2.6,0,0,1-.073.754H8.03a14.3,14.3,0,0,0,1.423,5.313,14.621,14.621,0,0,0,3.1,4.216A13.973,13.973,0,0,0,16.9-6.229a13.727,13.727,0,0,0,5.219.994,14.3,14.3,0,0,0,3.65-.48,15.3,15.3,0,0,0,3.358-1.3A12.421,12.421,0,0,0,31.9-9.039a8.676,8.676,0,0,0,1.9-2.639l4.307,1.1a11.827,11.827,0,0,1-2.482,3.6A17.178,17.178,0,0,1,31.9-4.172a18.888,18.888,0,0,1-4.672,1.851A21.493,21.493,0,0,1,21.9-1.67ZM35.916-22.1a13.729,13.729,0,0,0-1.424-5.245,14.318,14.318,0,0,0-3.066-4.079A13.661,13.661,0,0,0,27.12-34.1a14.158,14.158,0,0,0-5.219-.96,14.445,14.445,0,0,0-5.256.96A13.563,13.563,0,0,0,12.3-31.423,13.144,13.144,0,0,0,9.308-27.31,14.8,14.8,0,0,0,7.957-22.1Z" transform="translate(33 53.4)" fill="#ff0057"/>
  </g>
</svg>
